<svg width="376" height="75" viewBox="0 0 376 75" fill="none" xmlns="http://www.w3.org/2000/svg">
<path d="M28.6526 45.1237C28.5661 44.9755 28.4816 44.8237 28.4027 44.6737H22.99C19.0145 44.6737 15.7774 41.443 15.7774 37.4755C15.7774 33.5062 19.0127 30.2755 22.9919 30.2755H41.926C44.5525 30.2755 46.9141 31.693 48.1747 33.8755L50.2583 37.4755L54.9345 29.3887L54.9383 29.383C53.548 27.1537 51.6636 25.4005 49.5068 24.1818C49.3189 24.0749 49.2569 24.043 49.2569 24.043C46.5797 22.4868 42.4426 22.1849 42.4426 22.1849C42.2717 22.1793 42.0988 22.1755 41.9279 22.1755H22.9919C14.5393 22.1774 7.66309 29.038 7.66309 37.4737C7.66309 45.9093 14.5393 52.7718 22.99 52.7718H33.077L28.6526 45.1237Z" fill="#F26A02"/>
<path d="M55.2032 45.1217C55.1168 45.2717 55.0285 45.4179 54.9383 45.5623L57.6437 50.2423C59.6315 53.6792 58.446 58.0911 55.0041 60.0748C51.5584 62.0586 47.1377 60.8773 45.15 57.4386L35.6829 41.0754C34.3697 38.8048 34.4204 36.0561 35.6829 33.8736L37.7665 30.2736H28.4103H28.4028C27.1628 32.5911 26.5841 35.0961 26.6048 37.5673C26.6048 37.7829 26.6085 37.8542 26.6085 37.8523C26.5973 40.9442 28.4046 44.6717 28.4046 44.6717C28.4854 44.8217 28.5681 44.9736 28.6545 45.1217L38.1216 61.4886C42.3469 68.7936 51.7407 71.3061 59.0603 67.0873C66.3818 62.8704 68.8975 53.4954 64.6722 46.1923L59.6277 37.4736L55.2032 45.1217Z" fill="#3AA7FB"/>
<path d="M41.926 22.1774C42.0989 22.1774 42.2717 22.1793 42.4408 22.1868L45.1481 17.5086C47.1358 14.0736 51.5584 12.8905 55.0003 14.8743C58.4459 16.8599 59.6296 21.2718 57.64 24.7086L48.1729 41.0736C46.8596 43.3443 44.4492 44.6755 41.9241 44.6755H37.7589L42.4389 52.7605L42.4427 52.7661C45.0729 52.678 47.536 51.9261 49.6703 50.6718C49.8563 50.563 49.9164 50.5255 49.9164 50.5255C52.6068 48.9899 54.9364 45.5643 54.9364 45.5643C55.0266 45.4199 55.1168 45.2718 55.2013 45.1236L64.6684 28.7568C68.8937 21.4518 66.3781 12.0786 59.0565 7.8599C51.7369 3.64115 42.345 6.15365 38.1178 13.4586L33.0752 22.1774H41.9241H41.926Z" fill="#1954B3"/>
<path d="M102.247 47.6154C100.842 47.7711 99.5606 47.8648 98.4052 47.8967C97.1238 47.8967 95.929 47.8104 94.8205 47.6398C93.712 47.4692 92.7971 47.1186 92.0794 46.5879C91.3918 46.0273 90.845 45.0617 90.4392 43.6892C90.0334 42.3186 89.8305 40.7754 89.8305 39.0598V37.3761C89.8305 35.7561 90.0334 34.2748 90.4392 32.9342C90.845 31.5936 91.4237 30.6279 92.1733 30.0354C92.7971 29.5067 93.6557 29.1242 94.7491 28.8898C95.8425 28.6554 97.2009 28.5392 98.8241 28.5392C100.791 28.5392 102.931 28.7417 105.242 29.1467L105.524 28.8654V23.0211C104.586 22.8036 103.446 22.6161 102.104 22.4604C100.761 22.3048 99.3239 22.2261 97.7946 22.2261C94.3583 22.2261 91.5176 22.7717 89.2688 23.8629C87.0199 24.9542 85.3252 26.6604 84.1867 28.9817C83.0463 31.3048 82.4771 34.2579 82.4771 37.8411C82.4771 41.6436 82.9768 44.7542 83.9763 47.1692C84.9758 49.5842 86.5295 51.3617 88.6375 52.4998C90.7455 53.6379 93.5636 54.2061 97.0938 54.2061C99.0928 54.2061 100.802 54.0973 102.223 53.8779C103.643 53.6604 104.964 53.3792 106.181 53.0361V47.2386L105.853 47.0042C104.853 47.2536 103.651 47.4561 102.245 47.6117L102.247 47.6154Z" fill="#1954B3"/>
<path d="M126.701 30.0374C124.92 29.1018 122.874 28.6349 120.563 28.6349C118.252 28.6349 116.347 29.1018 114.566 30.0374C112.785 30.973 111.387 32.4224 110.373 34.3855C109.358 36.3486 108.851 38.7655 108.851 41.6324C108.851 44.2818 109.319 46.558 110.256 48.4593C111.194 50.3605 112.552 51.8174 114.331 52.8299C116.112 53.8424 118.188 54.3486 120.561 54.3486C122.934 54.3486 125.144 53.8424 126.91 52.8299C128.674 51.8174 130.032 50.3605 130.985 48.4593C131.937 46.558 132.414 44.2836 132.414 41.6324C132.414 38.7655 131.907 36.3486 130.893 34.3855C129.878 32.4224 128.48 30.973 126.699 30.0374H126.701ZM125.67 43.1755C125.67 44.4224 125.506 45.4424 125.177 46.2374C124.849 47.0324 124.319 47.6324 123.584 48.0374C122.85 48.4424 121.843 48.6449 120.563 48.6449C119.284 48.6449 118.369 48.4499 117.636 48.0599C116.902 47.6699 116.379 47.0774 116.067 46.2824C115.756 45.4874 115.6 44.4524 115.6 43.1736V39.8549C115.6 38.608 115.771 37.5711 116.114 36.7461C116.458 35.9211 116.98 35.3136 117.683 34.9236C118.386 34.5336 119.346 34.3386 120.565 34.3386C121.845 34.3386 122.844 34.5336 123.564 34.9236C124.281 35.3136 124.813 35.9211 125.157 36.7461C125.501 37.573 125.672 38.6099 125.672 39.8549V43.1736L125.67 43.1755Z" fill="#1954B3"/>
<path d="M150.452 28.6349C148.609 28.6349 147.133 28.993 146.026 29.7111C144.918 30.4293 144.05 31.4718 143.426 32.8443H143.206L141.504 29.1505H136.679V53.8368H143.379V35.8574C143.832 35.5611 144.44 35.3211 145.205 35.1355C146.111 34.918 147.001 34.8074 147.875 34.8074C148.906 34.8074 149.686 34.8936 150.218 35.0643C150.747 35.2368 151.116 35.5086 151.318 35.8818C151.521 36.2549 151.623 36.7386 151.623 37.3311V53.8349H158.322V37.4249C158.322 34.3705 157.627 32.1411 156.237 30.7386C154.847 29.3361 152.917 28.6349 150.45 28.6349H150.452Z" fill="#1954B3"/>
<path d="M174.906 48.2249C173.939 48.2249 173.227 48.1386 172.774 47.968C172.321 47.7974 172.017 47.5086 171.861 47.1036C171.705 46.6986 171.626 46.1061 171.626 45.3261V34.7136H178.887V29.1505H171.626V22.7924H169.283L164.926 24.523V29.1524H161.554V34.7155H164.926V44.908C164.926 46.903 165.199 48.5942 165.745 49.9799C166.292 51.3674 167.245 52.4417 168.603 53.2067C169.961 53.9699 171.703 54.3524 173.826 54.3524C174.825 54.3524 175.848 54.283 176.894 54.1424C177.94 54.0017 178.698 53.8536 179.165 53.698V48.2755L178.931 48.0411C177.743 48.1667 176.4 48.2286 174.903 48.2286L174.906 48.2249Z" fill="#1954B3"/>
<path d="M198.751 29.7092C197.252 28.9929 195.473 28.6329 193.41 28.6329C190.849 28.6329 188.709 29.0923 186.992 30.0129C185.275 30.9336 183.971 32.3586 183.081 34.2917C182.19 36.2248 181.745 38.6717 181.745 41.6323C181.745 44.5929 182.143 46.9086 182.94 48.7629C183.736 50.6173 185.055 52.0123 186.898 52.9479C188.741 53.8836 191.285 54.3504 194.534 54.3504C196.189 54.3504 197.72 54.2342 199.125 53.9998C200.531 53.7654 201.686 53.4936 202.592 53.1823V48.2267L202.404 47.9923C201.528 48.2098 200.452 48.4123 199.172 48.5998C197.891 48.7873 196.503 48.8811 195.003 48.8811C193.192 48.8811 191.817 48.7573 190.881 48.5079C189.944 48.2586 189.281 47.8386 188.89 47.2461C188.499 46.6536 188.304 45.8436 188.304 44.8142V42.9448H203.435V38.1298C203.435 36.0729 203.029 34.3348 202.218 32.9173C201.406 31.4998 200.251 30.4329 198.751 29.7148V29.7092ZM197.111 38.6398H188.307C188.328 37.5167 188.45 36.6111 188.677 35.9286C188.927 35.1804 189.38 34.6348 190.036 34.2917C190.692 33.9486 191.597 33.7779 192.753 33.7779H193.22C194.22 33.7779 195.001 33.8642 195.563 34.0348C196.125 34.2073 196.523 34.5111 196.758 34.9461C196.993 35.3829 197.109 36.0054 197.109 36.8154V38.6379L197.111 38.6398Z" fill="#1954B3"/>
<path d="M228.686 29.4749L228.451 29.1467H221.704L218.565 34.7567C218.159 35.5667 217.736 36.5024 217.3 37.5617H217.066C216.598 36.5024 216.16 35.5667 215.754 34.7567L212.709 29.1467H206.009L205.727 29.4749L212.66 41.1636L205.398 53.5067L205.633 53.8349H212.427L215.331 48.598C215.861 47.5686 216.44 46.3536 217.066 44.9511H217.3C217.768 46.1661 218.379 47.3661 219.127 48.5511L221.984 53.8349H228.825L229.06 53.5067L221.657 41.1636L228.684 29.4749H228.686Z" fill="#1954B3"/>
<path d="M244.146 48.2249C243.178 48.2249 242.466 48.1386 242.014 47.968C241.561 47.7974 241.256 47.5086 241.101 47.1036C240.945 46.6986 240.866 46.1061 240.866 45.3261V34.7136H248.127V29.1505H240.866V22.7924H238.523L234.166 24.523V29.1524H230.794V34.7155H234.166V44.908C234.166 46.903 234.438 48.5942 234.985 49.9799C235.532 51.3674 236.484 52.4417 237.843 53.2067C239.201 53.9717 240.943 54.3524 243.066 54.3524C244.065 54.3524 245.087 54.283 246.134 54.1424C247.18 54.0017 247.937 53.8536 248.405 53.698V48.2755L248.17 48.0411C246.983 48.1667 245.642 48.2286 244.142 48.2286L244.146 48.2249Z" fill="#1954B3"/>
<path d="M281.952 37.1661C280.735 36.4349 279.189 35.8967 277.314 35.5536L273.051 34.6649C271.801 34.4774 270.888 34.2374 270.31 33.9411C269.731 33.6449 269.342 33.3411 269.139 33.0299C268.936 32.7186 268.835 32.2517 268.835 31.6274V31.1605C268.835 30.4442 269.03 29.8667 269.421 29.4299C269.812 28.993 270.522 28.6742 271.553 28.4717C272.585 28.2692 274.02 28.168 275.863 28.168C277.081 28.168 278.409 28.2149 279.846 28.3086C281.281 28.4024 282.469 28.5261 283.406 28.6817L283.641 28.4942V22.8842C282.736 22.6967 281.58 22.5336 280.175 22.393C278.77 22.2524 277.285 22.183 275.724 22.183C272.352 22.183 269.641 22.5655 267.597 23.3286C265.551 24.0936 264.098 25.168 263.24 26.5555C262.381 27.943 261.951 29.6342 261.951 31.6274C261.951 33.2174 262.208 34.558 262.723 35.6474C263.238 36.7386 264.012 37.6274 265.041 38.3117C266.073 38.998 267.399 39.4967 269.024 39.808L273.381 40.6499C274.974 41.023 276.122 41.3586 276.825 41.6549C277.528 41.9511 277.996 42.2867 278.23 42.6599C278.465 43.033 278.582 43.5955 278.582 44.3436V44.8105C278.582 45.7142 278.371 46.4155 277.949 46.9142C277.528 47.413 276.825 47.7636 275.841 47.9661C274.856 48.1686 273.443 48.2699 271.6 48.2699C268.82 48.2699 265.774 48.0205 262.466 47.5217L262.278 47.7561V53.5067C263.121 53.6624 264.401 53.8274 266.12 53.998C267.837 54.1686 269.742 54.2549 271.835 54.2549C275.239 54.2549 277.949 53.8574 279.963 53.0624C281.977 52.2674 283.397 51.1292 284.225 49.6499C285.052 48.1705 285.467 46.3536 285.467 44.203C285.467 42.5192 285.186 41.1092 284.624 39.9711C284.062 38.833 283.171 37.8992 281.954 37.1661H281.952Z" fill="#1954B3"/>
<path d="M304.251 46.9311C303.733 47.2779 303.079 47.5686 302.284 47.8029C301.44 48.0523 300.582 48.1761 299.708 48.1761C298.303 48.1761 297.326 47.9886 296.781 47.6154C296.234 47.2423 295.962 46.5242 295.962 45.4648V29.1486H289.309V45.2792C289.309 48.3036 290.012 50.5704 291.417 52.0817C292.823 53.5929 294.807 54.3486 297.367 54.3486C299.21 54.3486 300.717 53.9904 301.888 53.2723C303.058 52.5561 303.847 51.5267 304.253 50.1861H304.484L305.987 53.8329H310.906V29.1486H304.253V46.9311H304.251Z" fill="#1954B3"/>
<path d="M322.943 29.1486H316.243V53.8348H322.943V29.1486Z" fill="#1954B3"/>
<path d="M321.983 19.4004C321.498 19.2598 320.694 19.1904 319.571 19.1904C318.447 19.1904 317.68 19.2598 317.181 19.4004C316.681 19.5411 316.352 19.8148 316.196 20.2179C316.04 20.6229 315.961 21.2942 315.961 22.2279C315.961 23.1617 316.038 23.7861 316.196 24.1911C316.352 24.5961 316.681 24.8848 317.181 25.0554C317.68 25.2279 318.477 25.3123 319.571 25.3123C320.664 25.3123 321.498 25.2261 321.983 25.0554C322.468 24.8848 322.787 24.5961 322.943 24.1911C323.099 23.7861 323.178 23.1317 323.178 22.2279C323.178 21.3242 323.099 20.6623 322.943 20.2404C322.787 19.8204 322.466 19.5392 321.983 19.3986V19.4004Z" fill="#1954B3"/>
<path d="M339.854 48.2249C338.886 48.2249 338.174 48.1386 337.721 47.968C337.268 47.7974 336.964 47.5086 336.808 47.1036C336.652 46.6986 336.573 46.1061 336.573 45.3261V34.7136H343.835V29.1505H336.573V22.7924H334.23L329.874 24.523V29.1524H326.501V34.7155H329.874V44.908C329.874 46.903 330.146 48.5942 330.693 49.9799C331.239 51.3674 332.192 52.4417 333.55 53.2067C334.909 53.9699 336.65 54.3524 338.773 54.3524C339.773 54.3524 340.795 54.283 341.841 54.1424C342.888 54.0017 343.645 53.8536 344.113 53.698V48.2755L343.878 48.0411C342.69 48.1667 341.347 48.2286 339.85 48.2286L339.854 48.2249Z" fill="#1954B3"/>
<path d="M368.385 42.9411V38.1261C368.385 36.0693 367.979 34.3311 367.167 32.9136C366.356 31.4961 365.2 30.4293 363.701 29.7111C362.202 28.9949 360.422 28.6349 358.36 28.6349C355.799 28.6349 353.659 29.0943 351.942 30.0149C350.225 30.9355 348.921 32.3605 348.03 34.2936C347.14 36.2268 346.694 38.6736 346.694 41.6343C346.694 44.5949 347.093 46.9105 347.889 48.7649C348.686 50.6193 350.005 52.0143 351.848 52.9499C353.691 53.8855 356.235 54.3524 359.483 54.3524C361.138 54.3524 362.669 54.2361 364.075 54.0018C365.48 53.7674 366.635 53.4955 367.541 53.1843V48.2286L367.353 47.9943C366.478 48.2118 365.401 48.4143 364.12 48.6018C362.838 48.7893 361.45 48.883 359.951 48.883C358.14 48.883 356.764 48.7593 355.829 48.5099C354.891 48.2605 354.228 47.8405 353.837 47.248C353.447 46.6555 353.251 45.8455 353.251 44.8161V42.9468H368.383L368.385 42.9411ZM354.985 34.2918C355.641 33.9486 356.547 33.778 357.702 33.778H358.17C359.169 33.778 359.951 33.8643 360.513 34.0349C361.074 34.2074 361.473 34.5111 361.707 34.9461C361.942 35.383 362.059 36.0055 362.059 36.8155V38.638H353.255C353.276 37.5149 353.398 36.6093 353.625 35.9268C353.875 35.1786 354.328 34.633 354.983 34.2899L354.985 34.2918Z" fill="#1954B3"/>
</svg>
